# xmcd
#
# Track frame offsets: 
#        150
#        15387
#        31519
#        47093
#        59897
#        71462
#        89064
#        101083
#        113926
#        129349
#        143699
#        160809
#        178079
#        195701
#        209111
#
# Disc length: 2974 seconds
#
# Revision: 3
# Processed by: cddbd v1.5.2PL0 Copyright (c) Steve Scherf et al.
# Submitted via: ExactAudioCopy v0.99pb5
#
DISCID=d90b9c0f
DTITLE=Paolo Conte - Snob
DYEAR=2014
DGENRE=Jazz
TTITLE0=Si sposa l'Africa
TTITLE1=Donna dal profumo di caffè
TTITLE2=Argentina
TTITLE3=Snob
TTITLE4=Tropical
TTITLE5=Fandango
TTITLE6=Incontro
TTITLE7=Tutti a casa
TTITLE8=L'uomo specchio
TTITLE9=Maracas
TTITLE10=Gente (csidn)
TTITLE11=Glamour
TTITLE12=Manuale di conversazione
TTITLE13=Signorina saponetta
TTITLE14=Ballerina
EXTD=YEAR: 2014
EXTT0=
EXTT1=
EXTT2=
EXTT3=
EXTT4=
EXTT5=
EXTT6=
EXTT7=
EXTT8=
EXTT9=
EXTT10=
EXTT11=
EXTT12=
EXTT13=
EXTT14=
PLAYORDER=
